<!DOCTYPE svg PUBLIC "-//W3C//DTD SVG 20010904//EN" "http://www.w3.org/TR/2001/REC-SVG-20010904/DTD/svg10.dtd">
<svg version="1.0" xmlns="http://www.w3.org/2000/svg" width="184px" height="45px" viewBox="0 0 1840 450" preserveAspectRatio="xMidYMid meet">
<g id="layer101" fill="#ffffff" stroke="none">
 <path d="M25 430 c10 -11 51 -36 93 -57 83 -41 100 -61 133 -162 13 -37 36 -80 56 -102 33 -37 118 -99 135 -99 4 0 8 74 8 165 0 268 -7 275 -269 275 -173 0 -174 0 -156 -20z"/>
 <path d="M0 270 c0 -259 11 -270 265 -269 150 1 158 2 126 15 -118 52 -250 185 -355 360 l-36 59 0 -165z"/>
 <path d="M592 238 l3 -113 45 -3 c59 -3 71 6 77 60 8 66 -8 88 -62 88 l-45 0 0 40 c0 22 -5 40 -10 40 -7 0 -10 -40 -8 -112z m106 -31 c4 -48 -11 -67 -54 -67 -34 0 -34 0 -34 48 0 27 3 52 7 56 4 4 23 6 43 4 33 -3 35 -5 38 -41z"/>
 <path d="M1180 235 l0 -115 48 0 c26 0 53 4 60 9 18 11 26 80 13 114 -9 24 -16 27 -56 27 l-45 0 0 40 c0 22 -4 40 -10 40 -6 0 -10 -45 -10 -115z m98 -37 l-3 -53 -37 -3 -38 -3 0 49 c0 27 3 52 7 55 3 4 22 7 40 7 l34 0 -3 -52z"/>
 <path d="M1420 235 l0 -115 41 0 c66 0 79 12 79 73 0 63 -11 77 -62 77 -38 0 -38 0 -38 40 0 22 -4 40 -10 40 -6 0 -10 -45 -10 -115z m98 -37 l-3 -53 -37 -3 -38 -3 0 55 0 56 41 0 40 0 -3 -52z"/>
 <path d="M760 200 c0 -40 4 -70 10 -70 6 0 10 30 10 70 0 40 -4 70 -10 70 -6 0 -10 -30 -10 -70z"/>
 <path d="M836 254 c-3 -9 -6 -38 -6 -64 0 -54 15 -70 67 -70 41 0 55 13 56 51 l2 34 -53 3 c-44 3 -53 6 -50 20 2 13 15 18 51 20 65 4 60 22 -7 22 -40 0 -55 -4 -60 -16z m99 -74 c12 -19 -17 -41 -49 -38 -23 2 -32 9 -34 26 -3 20 1 22 37 22 22 0 43 -5 46 -10z"/>
 <path d="M1007 263 c-4 -3 -7 -32 -7 -64 0 -49 3 -60 21 -70 12 -6 34 -9 50 -7 28 4 29 3 29 -34 0 -21 5 -38 10 -38 6 0 10 43 10 110 l0 110 -53 0 c-30 0 -57 -3 -60 -7z m91 -65 l-3 -53 -35 0 -35 0 -3 53 -3 52 41 0 41 0 -3 -52z"/>
 <path d="M1350 200 c0 -40 4 -70 10 -70 6 0 10 30 10 70 0 40 -4 70 -10 70 -6 0 -10 -30 -10 -70z"/>
 <path d="M1594 256 c-3 -7 -4 -38 -2 -67 3 -48 6 -55 31 -63 17 -6 37 -6 55 0 22 8 28 16 30 47 l3 37 -50 0 c-44 0 -51 3 -51 20 0 17 7 20 50 20 28 0 50 5 50 10 0 16 -110 12 -116 -4z m94 -88 c-2 -19 -10 -24 -40 -26 -35 -3 -38 -1 -38 22 0 24 4 26 41 26 36 0 40 -2 37 -22z"/>
 <path d="M1760 197 l0 -73 40 -1 c45 -2 55 14 13 19 -27 3 -28 6 -31 66 -4 86 -22 78 -22 -11z"/>
 <path d="M760 65 c0 -8 5 -15 10 -15 6 0 10 7 10 15 0 8 -4 15 -10 15 -5 0 -10 -7 -10 -15z"/>
 <path d="M1350 65 c0 -8 5 -15 10 -15 6 0 10 7 10 15 0 8 -4 15 -10 15 -5 0 -10 -7 -10 -15z"/>
 </g>

</svg>