<!DOCTYPE svg PUBLIC "-//W3C//DTD SVG 20010904//EN" "http://www.w3.org/TR/2001/REC-SVG-20010904/DTD/svg10.dtd">
<svg version="1.0" xmlns="http://www.w3.org/2000/svg" width="115px" height="115px" viewBox="0 0 1150 1150" preserveAspectRatio="xMidYMid meet">
<g id="layer101" fill="#379076" stroke="none">
 <path d="M525 1143 c-180 -38 -243 -66 -338 -153 -163 -150 -224 -386 -153 -593 49 -145 155 -266 291 -333 70 -34 187 -64 250 -64 63 0 180 30 250 64 217 107 352 355 315 579 -34 200 -147 355 -325 444 -74 38 -233 68 -290 56z"/>
 </g>
<g id="layer102" fill="#a4cdc0" stroke="none">
 <path d="M418 1055 c-101 -35 -139 -58 -201 -120 -156 -157 -196 -385 -102 -580 41 -85 81 -134 149 -183 98 -71 160 -93 282 -99 74 -4 114 -1 155 10 307 90 459 419 324 704 -55 118 -152 209 -278 260 -91 38 -235 41 -329 8z m303 -24 c124 -39 226 -131 287 -259 33 -69 37 -87 40 -174 4 -78 0 -110 -17 -166 -21 -70 -92 -189 -118 -199 -8 -3 -27 4 -43 16 -16 11 -32 21 -36 21 -15 0 -118 86 -152 128 l-37 45 -5 281 -5 281 -30 0 -30 0 -3 -175 -2 -174 -20 32 c-18 28 -20 51 -20 177 l0 145 -30 0 -30 0 0 -115 c0 -82 -3 -115 -12 -115 -21 0 -172 79 -202 105 l-29 26 27 28 c38 40 119 82 196 103 78 21 181 16 271 -11z m-485 -153 c25 -49 130 -204 185 -274 l49 -62 0 -196 0 -196 30 0 30 0 0 155 c0 85 4 155 9 155 23 0 31 -35 33 -166 l3 -139 33 -3 32 -3 0 105 c0 58 2 106 5 106 2 0 32 -18 67 -40 34 -23 88 -53 120 -68 31 -15 56 -31 54 -37 -5 -19 -86 -74 -143 -96 -85 -33 -253 -33 -338 -1 -172 66 -285 207 -315 394 -18 113 20 258 91 353 19 24 35 45 36 45 1 0 10 -15 19 -32z"/>
 </g>
<g id="layer103" fill="#fdfefd" stroke="none">
 <path d="M480 1067 c0 -5 -8 -7 -17 -6 -19 2 -25 0 -113 -38 -30 -13 -57 -24 -58 -23 -2 1 -10 -7 -17 -17 -7 -10 -19 -18 -27 -18 -7 0 -38 -36 -70 -80 -160 -224 -143 -484 42 -666 246 -242 647 -174 799 135 56 115 65 262 25 385 -44 134 -180 265 -322 310 -68 22 -242 35 -242 18z m209 -22 c139 -37 252 -127 315 -253 93 -185 61 -404 -81 -553 -76 -80 -155 -123 -266 -145 -80 -16 -93 -16 -167 -1 -111 22 -181 56 -254 127 -189 181 -207 473 -43 664 l25 29 17 -34 c26 -50 130 -204 186 -275 l49 -62 0 -196 0 -196 30 0 30 0 0 155 c0 85 4 155 9 155 23 0 31 -35 33 -166 l3 -139 33 -3 32 -3 0 105 c0 58 3 106 6 106 3 0 24 -13 47 -28 71 -48 135 -82 153 -82 10 0 14 3 10 7 -4 5 -11 8 -16 8 -15 0 -129 96 -162 137 l-33 42 -5 281 -5 280 -30 0 -30 0 -3 -175 -2 -174 -20 32 c-18 28 -20 51 -20 177 l0 145 -30 0 -30 0 0 -115 c0 -82 -3 -115 -12 -115 -20 0 -172 79 -200 104 -19 17 -26 31 -21 42 9 23 119 92 167 105 23 6 52 14 66 19 41 13 161 11 219 -5z"/>
 </g>

</svg>